<?xml version="1.0" encoding="utf-8"?>
<!-- Generator: Adobe Illustrator 26.0.1, SVG Export Plug-In . SVG Version: 6.00 Build 0)  -->
<svg version="1.1" id="Layer_1" xmlns="http://www.w3.org/2000/svg" xmlns:xlink="http://www.w3.org/1999/xlink" x="0px" y="0px"
	 viewBox="0 0 1756 909" style="enable-background:new 0 0 1756 909;" xml:space="preserve">
<style type="text/css">
	.st0{fill:#6B95BE;}
	.st1{fill:#00009A;}
	.st2{fill:#FFFFFF;}
</style>
<rect x="0.5" y="0.5" class="st0" width="1755" height="908"/>
<path d="M1755,1v907H1V1H1755 M1756,0H0v909h1756V0z"/>
<path class="st0" d="M1002.5,298c-10.1,0-19.7-6.2-27.2-17.4c-7.9-12-12.3-28-12.3-45.1s4.4-33.1,12.3-45.1
	c7.5-11.2,17.1-17.4,27.2-17.4s19.7,6.2,27.2,17.4c7.9,12,12.3,28,12.3,45.1s-4.4,33.1-12.3,45.1
	C1022.2,291.8,1012.6,298,1002.5,298z"/>
<path class="st1" d="M1002.5,179c10.8,0,18.5,9.2,22.2,14.7c7.2,10.8,11.3,26.1,11.3,41.8s-4.1,31-11.3,41.8
	c-3.7,5.5-11.4,14.7-22.2,14.7s-18.5-9.2-22.2-14.7c-7.2-10.8-11.3-26.1-11.3-41.8s4.1-31,11.3-41.8C984,188.2,991.7,179,1002.5,179
	 M1002.5,167c-25.1,0-45.5,30.7-45.5,68.5s20.4,68.5,45.5,68.5s45.5-30.7,45.5-68.5S1027.6,167,1002.5,167z"/>
<ellipse class="st0" cx="1094" cy="436.5" rx="12.5" ry="26"/>
<path class="st1" d="M1094,414c3.2,0,9,8.5,9,22.5s-5.8,22.5-9,22.5s-9-8.5-9-22.5S1090.8,414,1094,414 M1094,407
	c-8.8,0-16,13.2-16,29.5s7.2,29.5,16,29.5s16-13.2,16-29.5S1102.8,407,1094,407z"/>
<ellipse class="st0" cx="1622" cy="134.5" rx="28" ry="70.5"/>
<path class="st1" d="M1622,69c3.3,0,9,4.2,14.2,16.1c5.6,12.9,8.8,30.9,8.8,49.4s-3.2,36.6-8.8,49.4c-5.2,11.9-10.9,16.1-14.2,16.1
	s-9-4.2-14.2-16.1c-5.6-12.8-8.8-30.8-8.8-49.4s3.2-36.6,8.8-49.4C1613,73.2,1618.7,69,1622,69 M1622,59c-18.2,0-33,33.8-33,75.5
	s14.8,75.5,33,75.5s33-33.8,33-75.5S1640.2,59,1622,59z"/>
<ellipse class="st0" cx="1526" cy="705" rx="12" ry="23"/>
<path class="st1" d="M1526,685c3.7,0,9,7.8,9,20s-5.3,20-9,20s-9-7.8-9-20S1522.3,685,1526,685 M1526,679c-8.3,0-15,11.6-15,26
	s6.7,26,15,26s15-11.6,15-26S1534.3,679,1526,679z"/>
<ellipse class="st0" cx="1241" cy="115.5" rx="10" ry="15.5"/>
<path class="st1" d="M1241,103c3.3,0,7,5.4,7,12.5s-3.7,12.5-7,12.5s-7-5.4-7-12.5S1237.7,103,1241,103 M1241,97
	c-7.2,0-13,8.3-13,18.5s5.8,18.5,13,18.5s13-8.3,13-18.5S1248.2,97,1241,97z"/>
<path class="st0" d="M1495,579c-6.7,0-12-7-12-16c0-9.2,5.5-17,12-17s12,7.4,12,16.5S1501.6,579,1495,579z"/>
<path class="st1" d="M1495,549c4.9,0,9,6.2,9,13.5s-4.1,13.5-9,13.5s-9-5.8-9-13C1486,555.7,1490.3,549,1495,549 M1495,543
	c-8.3,0-15,9.2-15,20s6.7,19,15,19s15-8.7,15-19.5S1503.3,543,1495,543z"/>
<ellipse class="st0" cx="1485" cy="362.5" rx="13.5" ry="41"/>
<path class="st1" d="M1485,325c0.7,0.3,3.4,2.4,5.9,9.7c2.6,7.5,4.1,17.4,4.1,27.8s-1.4,20.3-4.1,27.8c-2.6,7.3-5.2,9.5-5.9,9.7
	c-0.7-0.3-3.4-2.4-5.9-9.7c-2.6-7.5-4.1-17.4-4.1-27.8s1.4-20.3,4.1-27.8C1481.6,327.4,1484.3,325.3,1485,325 M1485,318
	c-9.4,0-17,19.9-17,44.5s7.6,44.5,17,44.5s17-19.9,17-44.5S1494.4,318,1485,318z"/>
<path class="st2" d="M1094,747.5L1094,747.5z"/>
<path d="M1094,742L1094,742z"/>
<ellipse class="st0" cx="1127.5" cy="783.5" rx="9.5" ry="33.5"/>
<path class="st1" d="M1127.5,753.3c2.3,2.4,6.5,12.7,6.5,30.2s-4.2,27.7-6.5,30.2c-2.3-2.4-6.5-12.7-6.5-30.2
	S1125.2,755.8,1127.5,753.3 M1127.5,747c-6.9,0-12.5,16.3-12.5,36.5s5.6,36.5,12.5,36.5s12.5-16.3,12.5-36.5S1134.4,747,1127.5,747z
	"/>
<ellipse class="st0" cx="1687.5" cy="828" rx="15.5" ry="30"/>
<path class="st1" d="M1687.5,802c4.6,0,11.5,10.4,11.5,26s-6.9,26-11.5,26s-11.5-10.4-11.5-26S1682.9,802,1687.5,802 M1687.5,794
	c-10.8,0-19.5,15.2-19.5,34s8.7,34,19.5,34s19.5-15.2,19.5-34S1698.3,794,1687.5,794z"/>
<ellipse class="st0" cx="1692.5" cy="548" rx="11.5" ry="34"/>
<path class="st1" d="M1692.5,517c0.5,0.2,2.8,1.9,5,7.8c2.3,6.2,3.5,14.5,3.5,23.2s-1.2,16.9-3.5,23.2c-2.2,6-4.5,7.7-5,7.8
	c-0.5-0.2-2.8-1.9-5-7.8c-2.3-6.2-3.5-14.5-3.5-23.2s1.2-16.9,3.5-23.2C1689.7,518.8,1692,517.1,1692.5,517 M1692.5,511
	c-8,0-14.5,16.6-14.5,37s6.5,37,14.5,37s14.5-16.6,14.5-37S1700.5,511,1692.5,511z"/>
<ellipse class="st0" cx="951" cy="809.4" rx="10" ry="38"/>
<path class="st1" d="M951,774.8c2.5,2.8,7,14.5,7,34.6s-4.5,31.7-7,34.6c-2.5-2.8-7-14.5-7-34.6S948.5,777.7,951,774.8 M951,768.4
	c-7.2,0-13,18.4-13,41s5.8,41,13,41s13-18.4,13-41S958.2,768.4,951,768.4z"/>
<ellipse class="st0" cx="1341" cy="802.5" rx="10.5" ry="27"/>
<path class="st1" d="M1341,779c0.5,0.2,2.3,1.7,4,5.9c4,11.4,4,23.8,0,35.2c-1.7,4.2-3.5,5.6-4,5.9c-0.5-0.2-2.3-1.7-4-5.9
	c-4-11.4-4-23.8,0-35.2C1338.7,780.7,1340.5,779.2,1341,779 M1341,772c-7.7,0-14,13.7-14,30.5s6.3,30.5,14,30.5s14-13.7,14-30.5
	S1348.7,772,1341,772z"/>
<ellipse class="st0" cx="1288.5" cy="315" rx="13" ry="31.5"/>
<path class="st1" d="M1288.5,287c0.9,0,3.2,1.7,5.3,6.2c2.6,5.6,4.2,13.5,4.2,21.8s-1.5,16.1-4.2,21.8c-2.2,4.5-4.4,6.2-5.3,6.2
	s-3.2-1.7-5.3-6.2c-2.6-5.6-4.2-13.5-4.2-21.8s1.5-16.1,4.2-21.8C1285.3,288.7,1287.6,287,1288.5,287 M1288.5,280
	c-9.1,0-16.5,15.7-16.5,35s7.4,35,16.5,35s16.5-15.7,16.5-35S1297.6,280,1288.5,280z"/>
<ellipse class="st0" cx="1026.5" cy="614.5" rx="12" ry="26"/>
<path class="st1" d="M1026.5,592c2.9,0,8.5,8.8,8.5,22.5s-5.6,22.5-8.5,22.5s-8.5-8.8-8.5-22.5S1023.6,592,1026.5,592 M1026.5,585
	c-8.6,0-15.5,13.2-15.5,29.5s6.9,29.5,15.5,29.5s15.5-13.2,15.5-29.5S1035.1,585,1026.5,585z"/>
<path class="st0" d="M1251,691c-6.7,0-12-7-12-16c0-9.2,5.5-17,12-17s12,7.4,12,16.5S1257.6,691,1251,691z"/>
<path class="st1" d="M1251,661c4.9,0,9,6.2,9,13.5s-4.1,13.5-9,13.5s-9-5.8-9-13C1242,667.7,1246.3,661,1251,661 M1251,655
	c-8.3,0-15,9.2-15,20s6.7,19,15,19s15-8.7,15-19.5S1259.3,655,1251,655z"/>
<ellipse class="st0" cx="1432" cy="150.5" rx="13" ry="31.5"/>
<path class="st1" d="M1432,122.5c0.9,0,3.2,1.7,5.3,6.2c2.6,5.6,4.2,13.5,4.2,21.8s-1.5,16.1-4.2,21.8c-2.2,4.5-4.4,6.2-5.3,6.2
	s-3.2-1.7-5.3-6.2c-2.6-5.6-4.2-13.5-4.2-21.8s1.5-16.1,4.2-21.8C1428.8,124.2,1431.1,122.5,1432,122.5 M1432,115.5
	c-9.1,0-16.5,15.7-16.5,35s7.4,35,16.5,35s16.5-15.7,16.5-35S1441.1,115.5,1432,115.5z"/>
<path class="st0" d="M1655,347c-6.7,0-12-7-12-16c0-9.2,5.5-17,12-17s12,7.4,12,16.5S1661.6,347,1655,347z"/>
<path class="st1" d="M1655,317c4.9,0,9,6.2,9,13.5s-4.1,13.5-9,13.5s-9-5.8-9-13C1646,323.7,1650.3,317,1655,317 M1655,311
	c-8.3,0-15,9.2-15,20s6.7,19,15,19s15-8.7,15-19.5S1663.3,311,1655,311z"/>
<ellipse transform="matrix(6.491307e-02 -0.9979 0.9979 6.491307e-02 702.2784 1835.446)" class="st0" cx="1330.5" cy="543" rx="28" ry="8.5"/>
<path class="st1" d="M1330.5,515.1c1.9,1.5,6,10.2,6,25.4s-4.1,23.9-6,25.4c-1.9-1.5-6-10.2-6-25.4S1328.6,516.6,1330.5,515.1
	 M1330.5,510c-6.1,0-11,13.7-11,30.5s4.9,30.5,11,30.5s11-13.7,11-30.5S1336.6,510,1330.5,510z"/>
</svg>
